<?xml version="1.0" encoding="iso-8859-1"?>
<!-- Generator: Adobe Illustrator 19.0.0, SVG Export Plug-In . SVG Version: 6.00 Build 0)  -->
<svg version="1.1" id="Layer_1" xmlns="http://www.w3.org/2000/svg" xmlns:xlink="http://www.w3.org/1999/xlink" x="0px" y="0px"
	 viewBox="0 0 505 505" style="enable-background:new 0 0 505 505;" xml:space="preserve">
<circle style="fill:#324A5E;" cx="252.5" cy="252.5" r="252.5"/>
<path style="fill:#FFFFFF;" d="M252.5,159.5c-51.3,0-93,41.7-93,93s41.7,93,93,93s93-41.7,93-93S303.8,159.5,252.5,159.5z
	 M170.9,258.1h27.2c0.4,11.7,2,22.7,4.5,32.7h-22.4C174.9,280.9,171.7,269.8,170.9,258.1z M258.1,203v-31.6
	c11.5,2.9,21.8,14.8,28.7,31.6H258.1z M290.7,214.2c2.9,9.9,4.6,21,5.1,32.7h-37.7v-32.7H290.7z M246.9,171.4V203h-28.7
	C225.2,186.2,235.4,174.4,246.9,171.4z M246.9,214.2v32.7h-37.7c0.4-11.7,2.2-22.8,5.1-32.7H246.9z M198.1,246.9h-27.2
	c0.8-11.7,4-22.8,9.3-32.7h22.4C200,224.2,198.5,235.3,198.1,246.9z M209.2,258.1h37.7v32.7h-32.6
	C211.5,280.9,209.7,269.8,209.2,258.1z M246.9,302v31.6c-11.5-2.9-21.8-14.8-28.7-31.6H246.9z M258.1,333.6V302h28.7
	C279.8,318.8,269.6,330.6,258.1,333.6z M258.1,290.8v-32.7h37.7c-0.4,11.7-2.2,22.8-5.1,32.7H258.1z M306.9,258.1h27.2
	c-0.8,11.7-4,22.8-9.3,32.7h-22.4C305,280.7,306.5,269.7,306.9,258.1z M306.9,246.9c-0.4-11.7-2-22.7-4.5-32.7h22.4
	c5.2,9.9,8.5,21,9.3,32.7H306.9z M317.6,203h-18.7c-3.6-10-8.3-18.7-13.9-25.6C298,183,309.1,191.9,317.6,203z M220,177.4
	c-5.6,6.9-10.3,15.6-13.9,25.6h-18.7C195.9,191.9,207,183,220,177.4z M187.4,302h18.7c3.6,10,8.3,18.7,13.9,25.6
	C207,322,195.9,313.1,187.4,302z M285,327.6c5.6-6.9,10.3-15.6,13.9-25.6h18.7C309.1,313.1,298,322,285,327.6z"/>
<path style="fill:#E6E9EE;" d="M372.1,121.3C340.6,92.5,298.7,75,252.6,75s-88,17.5-119.6,46.3l36,36c22.3-19.6,51.6-31.5,83.6-31.5
	s61.2,11.9,83.6,31.5L372.1,121.3z"/>
<path style="fill:#54C0EB;" d="M430,244.2c-1.9-42.8-19-81.6-46.1-111.2l-36,36c17.9,20.4,29.3,46.5,31.2,75.3H430V244.2z"/>
<path style="fill:#FF7058;" d="M75,252.5c0,98,79.5,177.5,177.6,177.5c46.1,0,88-17.5,119.5-46.3l-36-36
	c-22.3,19.6-51.5,31.5-83.5,31.5c-70,0-126.8-56.7-126.8-126.7c0-32,11.9-61.2,31.5-83.6l-36-36C92.6,164.5,75,206.5,75,252.5z"/>
<path style="fill:#FFD05B;" d="M383.9,372c27.1-29.6,44.2-68.5,46.1-111.2h-50.9c-1.8,28.8-13.3,54.9-31.2,75.3L383.9,372z"/>
</svg>
