<!--?xml version="1.0" encoding="utf-8"?-->
<!-- Generator: Adobe Illustrator 18.1.1, SVG Export Plug-In . SVG Version: 6.00 Build 0)  -->

<svg version="1.1" id="_x32_" xmlns="http://www.w3.org/2000/svg" xmlns:xlink="http://www.w3.org/1999/xlink" x="0px" y="0px" viewBox="0 0 512 512" style="width: 128px; height: 128px; opacity: 1;" xml:space="preserve">
<style type="text/css">
	.st0{fill:#3a3a3a;}
</style>
<g>
	<path class="st0" d="M256.617,249.025c4.909,16.405,30.484,18.805,45.782,4.457c-22.824,1.133-25.298-15.805-45.54-16.088v-0.027
		l-0.243,0.014l-0.243-0.014v0.027c-20.241,0.283-22.716,17.221-45.539,16.088C226.134,267.83,251.708,265.43,256.617,249.025z"></path>
	<polygon class="st0" points="255.693,387.545 243.058,387.545 236.146,442.194 255.693,480.168 275.24,442.194 268.329,387.545 	
		"></polygon>
	<path class="st0" d="M438.398,404.341c-12.319-18.455-31.03-28.656-48.614-35.278c-8.82-3.324-17.436-5.764-25.028-7.842
		c-7.579-2.063-14.174-3.803-18.603-5.468c-7.747-2.886-15.933-6.608-21.644-10.627c-2.852-1.982-5.05-4.032-6.325-5.785
		c-1.288-1.78-1.638-3.021-1.652-4.092c0-7.45,0-16.769,0-29.027c9.912-11.031,24.152-28.124,30.005-55.222
		c2.043-0.924,4.066-1.962,6.014-3.318c4.848-3.344,8.961-8.212,12.447-14.813c3.506-6.634,6.614-15.124,9.932-26.721
		c1.16-4.086,1.76-7.727,1.767-11.145c0.02-4.478-1.133-8.739-3.634-12.05c-0.486-0.654-1.038-1.213-1.592-1.759
		c8.617-18.779,12.663-37.577,12.663-55.101c0-18.205-4.315-35.055-12.305-49.026c-7.984-13.957-19.722-25.042-34.266-31.36
		c-0.755-0.317-2.481-1.328-4.598-2.825c-3.756-2.616-8.867-6.648-14.948-11.152c-9.15-6.756-20.565-14.631-33.922-20.875
		C270.75,4.625,255.383,0,238.493,0c-2.097,0-4.201,0.068-6.324,0.216c-13.088,0.903-24.011,3.182-33.444,6.796
		c-14.179,5.394-24.759,13.823-34.016,23.829c-9.292,10.026-17.49,21.603-27.706,34.347c-10.303,12.905-13.7,28.858-13.694,44.508
		c0.014,16.62,3.769,33.274,8.037,47.353c3.014,9.911,6.312,18.529,8.806,24.799c-0.648,0.702-1.382,1.281-1.915,2.117
		c-2.029,3.169-2.933,6.999-2.926,11.044c0.007,3.412,0.607,7.067,1.767,11.139c4.436,15.454,8.441,25.433,13.626,32.756
		c2.589,3.634,5.542,6.554,8.752,8.778c1.948,1.356,3.972,2.394,6.014,3.318c5.852,27.099,20.093,44.191,30.005,55.222
		c0,12.258,0,21.576,0,29.027c0,0.91-0.365,2.238-1.787,4.126c-2.084,2.805-6.405,6.196-11.537,9.083
		c-5.118,2.912-11.004,5.434-16.156,7.241c-6.048,2.144-15.791,4.382-26.707,7.511c-16.405,4.74-35.796,11.57-51.574,25.102
		c-7.876,6.763-14.793,15.259-19.655,25.818c-4.868,10.559-7.66,23.093-7.653,37.772c0,3.398,0.148,6.918,0.458,10.559
		c0.222,2.562,1.193,4.632,2.333,6.338c2.171,3.196,5.05,5.563,8.657,7.997c6.318,4.181,15.07,8.267,26.276,12.279
		c33.538,11.961,89.064,22.904,157.872,22.925c55.903-0.007,103.088-7.262,136.767-16.371c16.85-4.565,30.301-9.568,40.024-14.564
		c4.868-2.515,8.805-5.003,11.928-7.727c1.564-1.376,2.933-2.818,4.086-4.538c1.132-1.705,2.11-3.775,2.333-6.338
		c0.303-3.641,0.452-7.147,0.452-10.539C451.62,432.363,446.597,416.599,438.398,404.341z M138.5,109.696
		c0-13.566,2.96-25.791,10.364-35.014c14.004-17.558,23.829-31.892,35.446-41.676c5.819-4.922,12.063-8.826,19.837-11.806
		c7.774-2.974,17.133-5.003,29.067-5.825c1.787-0.129,3.54-0.189,5.28-0.189c21.428-0.027,40.867,9.035,56.746,19.216
		c7.936,5.084,14.928,10.397,20.855,14.894c2.966,2.245,5.67,4.295,8.165,6.042c2.515,1.747,4.754,3.203,7.248,4.295
		c11.314,4.936,20.578,13.552,27.132,24.988c6.548,11.422,10.303,25.662,10.303,41.474c0,16.101-3.952,33.814-12.696,51.736
		c-3.324,0.013-6.5,0.512-9.284,1.132c0.492-2.953,1.052-6.446,1.618-10.181c1.564-10.424,3.155-22.399,3.169-30.012
		c0-7.113-0.668-13.046-2.164-18.117c-2.164-7.592-6.736-13.35-12.892-16.425c-6.116-3.102-13.148-3.87-21.124-3.891
		c-16.378,0.034-37.516,3.5-64.17,3.486c-24.92,0.014-43.47-2.488-57.602-2.508c-5.192,0.007-9.83,0.338-14.099,1.43
		c-3.196,0.822-6.196,2.124-8.819,4.086c-3.964,2.946-6.75,7.322-8.347,12.582c-1.618,5.293-2.266,11.57-2.272,19.358
		c0.013,7.613,1.604,19.587,3.169,30.012c0.566,3.735,1.126,7.228,1.618,10.181c-2.812-0.62-6.022-1.132-9.379-1.132
		c-0.243,0-0.492,0.054-0.742,0.054c-2.508-6.244-5.94-15.05-9.048-25.258C141.851,139.424,138.487,123.997,138.5,109.696z
		 M179.468,244.17l-0.768-4.349l-4.154-1.484c-2.643-0.944-4.659-1.908-6.419-3.128c-2.596-1.834-4.949-4.336-7.7-9.467
		c-2.717-5.098-5.596-12.71-8.745-23.761c-0.876-3.075-1.187-5.401-1.18-6.972c0.007-1.901,0.385-2.609,0.539-2.858
		c0.176-0.243,0.243-0.35,0.89-0.648l-2.36-5.812h0.007l1.591,3.898v-0.007c1.046-0.439,2.643-0.715,4.498-0.708
		c3.108-0.014,6.81,0.735,9.614,1.524c1.409,0.391,2.61,0.782,3.432,1.078l0.937,0.338l0.229,0.094l0.041,0.014l9.305,3.769
		l-1.794-9.878c0,0-0.384-2.104-0.958-5.502c-0.87-5.097-2.171-13.08-3.257-21.023c-1.078-7.916-1.921-15.912-1.914-20.518
		c-0.007-6.351,0.505-11.253,1.429-14.82c0.681-2.69,1.571-4.598,2.562-5.994c1.504-2.063,3.196-3.25,6.143-4.221
		c2.933-0.938,7.08-1.382,12.359-1.376c12.845-0.013,32.007,2.508,57.602,2.516c27.537-0.014,49.329-3.52,64.17-3.486
		c4.801-0.007,8.826,0.358,11.982,1.167c4.76,1.288,7.363,3.068,9.54,6.695c2.158,3.654,3.635,9.884,3.615,19.519
		c0.013,6.183-1.504,18.219-3.048,28.366c-0.769,5.098-1.545,9.776-2.124,13.175c-0.573,3.398-0.958,5.502-0.958,5.502l-1.793,9.878
		l9.305-3.769l0.04-0.014c0.641-0.296,8.341-3.102,14.22-3.034c1.483-0.007,2.792,0.162,3.769,0.452l1.571-5.293l-2.131,7.289
		c0.992,0.31,1.187,0.546,1.356,0.748c0.141,0.209,0.573,0.809,0.594,2.933c0.006,1.571-0.304,3.904-1.18,6.978
		c-4.188,14.752-7.943,23.329-11.389,28.09c-1.726,2.4-3.304,3.91-5.057,5.138c-1.76,1.22-3.776,2.184-6.419,3.128l-4.153,1.484
		l-0.768,4.349c-4.862,27.219-18.886,42.525-29.243,54.062l-1.949,2.164v2.92c0,13.809,0,23.876,0,31.933
		c0,0.162,0.041,0.317,0.047,0.479l-40.064,25.918h-5.637h-6.756l-38.433-24.867c0.047-0.512,0.155-1.005,0.155-1.53
		c0-8.057,0-18.131,0-31.933v-2.92l-1.948-2.164C198.354,286.695,184.329,271.39,179.468,244.17z M311.529,354.189l-23.37,35.055
		l-19.095-20.369l0.243-4.167l33.626-21.752c0.796,1.948,1.814,3.776,3.014,5.394C307.564,350.521,309.479,352.409,311.529,354.189z
		 M242.363,369.488l-18.529,19.756l-23.404-35.109c1.949-1.699,3.782-3.519,5.354-5.576c1.099-1.443,2.036-3.062,2.839-4.767
		l33.497,21.67L242.363,369.488z M257.197,496.795c-0.404,0-0.789,0.014-1.194,0.014c-0.62,0-1.207-0.027-1.827-0.027
		l-68.235-133.18c3.088-1.584,6.136-3.31,8.995-5.246l27.981,41.967l20.006-21.334l0.128,2.218h12.642h12.642l0.168-2.826
		l20.572,21.941l27.948-41.926c1.517,1.005,3.081,1.969,4.686,2.886c1.261,0.715,2.616,1.301,3.918,1.968L257.197,496.795z"></path>
</g>
</svg>
